<?xml version="1.0" standalone="no"?>
<!DOCTYPE svg PUBLIC "-//W3C//DTD SVG 20010904//EN"
 "http://www.w3.org/TR/2001/REC-SVG-20010904/DTD/svg10.dtd">
<svg version="1.0" xmlns="http://www.w3.org/2000/svg"
 width="1145.000000pt" height="1280.000000pt" viewBox="0 0 1145.000000 1280.000000"
 preserveAspectRatio="xMidYMid meet">
<metadata>
Created by potrace 1.15, written by Peter Selinger 2001-2017
</metadata>
<g transform="translate(0.000000,1280.000000) scale(0.100000,-0.100000)"
fill="#000000" stroke="none">
<path d="M10474 12776 c-17 -8 -40 -25 -51 -40 -19 -23 -28 -26 -87 -26 -54 0
-66 3 -66 16 0 9 -8 23 -17 30 -27 21 -35 16 -18 -9 8 -13 12 -27 8 -30 -3 -4
-117 -7 -253 -7 -717 0 -1382 -71 -2038 -217 l-163 -36 -107 26 c-122 31 -218
47 -279 47 -117 0 -203 -46 -203 -110 0 -27 -3 -31 -17 -25 -167 70 -523 85
-734 31 -159 -40 -264 -104 -316 -194 -25 -42 -28 -57 -28 -138 0 -88 1 -93
47 -185 26 -52 71 -125 99 -162 28 -37 50 -69 48 -71 -2 -1 -55 -34 -118 -72
-106 -64 -112 -69 -85 -74 26 -5 29 -9 26 -40 -6 -77 -174 -323 -410 -600
-141 -166 -433 -460 -458 -460 -33 0 -245 -58 -369 -100 -163 -56 -406 -175
-545 -267 -133 -89 -280 -229 -327 -314 -69 -123 -180 -178 -457 -224 -172
-29 -173 -30 -96 -62 35 -15 50 -27 50 -40 0 -61 -145 -194 -545 -498 -269
-205 -396 -316 -541 -474 -734 -801 -1113 -1636 -1214 -2671 -18 -183 -24
-672 -11 -885 20 -323 70 -770 119 -1072 l18 -112 -38 -38 c-47 -46 -58 -83
-58 -196 0 -104 -12 -139 -68 -189 -53 -47 -99 -71 -223 -113 -56 -18 -106
-38 -112 -44 -22 -22 8 -29 81 -18 72 10 99 4 84 -19 -4 -5 -53 -47 -109 -92
-472 -380 -766 -770 -864 -1148 -33 -126 -33 -324 -1 -439 125 -439 600 -723
1372 -821 164 -21 689 -30 892 -15 480 36 874 101 1513 250 739 172 1196 235
1795 248 1285 26 2384 -300 3296 -979 56 -42 111 -81 123 -87 20 -11 21 -10
15 16 -33 135 -215 352 -442 526 -724 555 -1806 882 -3052 923 -221 7 -464 -4
-790 -37 -311 -31 -451 -50 -1310 -179 -1009 -151 -1253 -176 -1671 -167 -254
5 -361 17 -489 58 -132 42 -189 78 -301 189 -89 89 -112 118 -148 190 -94 192
-73 349 72 538 300 390 1247 752 2152 823 145 11 497 7 557 -7 24 -5 31 -16
48 -73 23 -79 41 -105 83 -128 50 -27 184 -22 353 12 l141 28 39 -19 c32 -15
49 -36 90 -109 39 -67 62 -97 93 -117 80 -51 266 -70 826 -88 457 -14 642 -43
835 -130 177 -79 213 -84 497 -66 115 8 135 7 157 -7 21 -14 24 -22 19 -51 -4
-29 -1 -37 21 -51 22 -15 47 -18 133 -17 62 1 111 6 119 13 8 6 14 29 14 50 0
47 -4 46 146 19 60 -11 125 -20 145 -20 42 0 75 21 66 42 -5 14 6 15 76 11 87
-5 152 9 170 38 7 11 1 25 -27 55 -19 21 -64 92 -98 157 -70 131 -128 197
-175 197 -22 1 -34 10 -56 45 -38 60 -92 85 -215 96 -53 5 -320 11 -592 14
-513 6 -703 15 -852 41 -112 19 -247 58 -321 92 l-59 27 76 53 c42 29 95 62
119 72 53 23 272 62 347 61 68 0 206 -36 365 -95 154 -58 250 -82 381 -98 119
-13 237 -2 327 32 47 18 53 18 99 3 34 -11 66 -14 102 -9 44 5 56 3 70 -13 9
-10 45 -32 79 -47 67 -31 38 -29 389 -25 l98 1 15 30 c8 16 27 33 40 36 42 10
46 32 18 109 -14 39 -36 106 -49 150 -13 43 -28 83 -33 88 -4 4 -64 17 -132
28 -68 11 -196 35 -284 54 -207 44 -379 69 -645 95 -423 40 -519 58 -614 114
l-45 26 46 98 c75 160 129 293 167 412 39 120 76 310 76 393 1 62 26 128 99
252 198 337 261 472 261 566 0 39 -7 54 -49 109 -85 109 -76 133 23 65 37 -25
71 -45 77 -45 23 0 51 103 118 435 38 193 90 420 115 506 99 347 220 613 377
832 l66 92 80 7 c110 9 206 44 397 143 255 133 350 158 596 159 196 1 196 1
202 -131 5 -108 22 -156 75 -204 51 -47 226 -160 240 -155 25 10 13 51 -32
106 -59 72 -60 99 -1 155 64 62 107 70 225 40 57 -15 103 -33 117 -46 32 -30
64 -130 71 -219 11 -150 -40 -246 -222 -416 -124 -118 -136 -141 -65 -131 44
6 93 37 245 157 101 80 203 150 219 150 12 0 6 -62 -10 -93 -9 -18 -36 -59
-59 -92 -74 -105 -80 -135 -25 -135 34 0 58 27 136 153 69 112 123 187 134
187 10 0 24 -66 41 -195 6 -49 16 -101 21 -115 9 -25 10 -25 25 -5 101 133 68
348 -92 595 -88 137 -274 349 -364 414 -25 19 -96 59 -157 90 -99 50 -165 96
-137 96 36 0 202 36 341 74 230 64 361 82 471 68 74 -10 95 -18 161 -59 148
-94 198 -114 266 -112 73 2 119 -21 164 -83 40 -54 48 -84 63 -226 7 -67 18
-127 25 -134 6 -6 22 -8 37 -4 40 10 56 61 65 208 11 152 18 198 35 204 23 9
89 -15 127 -46 45 -37 102 -148 148 -284 18 -54 37 -95 43 -93 6 2 20 16 31
31 32 42 27 158 -13 315 -18 68 -30 125 -28 127 2 3 29 -11 60 -30 75 -45 163
-80 182 -72 15 5 14 9 -2 37 -46 77 -192 206 -335 295 -189 118 -310 164 -663
254 -704 179 -1109 300 -1435 427 -132 52 -333 148 -403 193 l-47 30 25 28
c47 50 123 224 226 517 115 328 183 487 261 612 67 108 174 218 253 260 47 25
75 51 130 118 136 170 322 330 537 464 138 87 367 211 398 218 14 2 64 -5 112
-16 47 -12 99 -21 114 -21 75 1 164 73 214 174 35 69 38 108 11 135 -19 19
-79 41 -113 41 -49 0 23 50 115 79 52 17 60 38 52 136 l-7 82 66 52 c36 29 85
75 111 103 l45 50 200 -12 c110 -7 203 -11 205 -8 3 3 -82 13 -190 23 -107 10
-199 21 -205 25 -7 4 -5 21 6 52 13 40 21 49 62 66 26 11 57 23 70 27 13 4 22
9 19 11 -2 2 -35 -5 -72 -17 -80 -24 -81 -24 -91 68 l-6 63 55 59 c66 72 91
137 85 217 -5 64 -33 99 -87 113 -46 12 -292 31 -399 31 -45 0 -82 4 -82 8 0
15 25 40 55 56 24 12 26 15 10 15 -11 0 -34 -6 -51 -13z"/>
</g>
</svg>
